<?xml version="1.0" standalone="no"?>
<!DOCTYPE svg PUBLIC "-//W3C//DTD SVG 20010904//EN"
 "http://www.w3.org/TR/2001/REC-SVG-20010904/DTD/svg10.dtd">
<svg version="1.0" xmlns="http://www.w3.org/2000/svg"
 width="1200.000000pt" height="1200.000000pt" viewBox="0 0 1200.000000 1200.000000"
 preserveAspectRatio="xMidYMid meet">

<g transform="translate(0.000000,1200.000000) scale(0.100000,-0.100000)"
fill="#000000" stroke="none">
<path d="M2180 7307 c-13 -7 -29 -25 -34 -40 -22 -61 67 -114 113 -68 30 30
27 75 -5 100 -31 24 -40 25 -74 8z"/>
<path d="M2615 7208 c-27 -16 -35 -28 -35 -60 0 -36 32 -68 69 -68 57 0 88 76
48 117 -19 18 -60 24 -82 11z"/>
<path d="M1796 7149 c-48 -38 -20 -119 41 -119 30 0 73 42 73 70 0 26 -43 70
-68 70 -11 0 -31 -9 -46 -21z"/>
<path d="M2932 6940 c-31 -29 -29 -73 4 -99 15 -12 35 -21 46 -21 25 0 68 44
68 70 0 28 -43 70 -73 70 -13 0 -33 -9 -45 -20z"/>
<path d="M1497 6852 c-22 -25 -21 -75 1 -95 25 -22 75 -21 95 1 22 25 21 75
-1 95 -25 22 -75 21 -95 -1z"/>
<path d="M6000 6195 l0 -455 75 0 75 0 0 455 0 455 -75 0 -75 0 0 -455z"/>
<path d="M7010 6195 l0 -455 75 0 75 0 0 230 0 230 47 30 c50 32 115 40 154
20 43 -24 49 -56 49 -290 l0 -220 75 0 75 0 0 223 c0 263 -8 305 -69 360 -78
71 -192 75 -285 12 -20 -14 -39 -25 -41 -25 -3 0 -5 77 -5 170 l0 170 -75 0
-75 0 0 -455z"/>
<path d="M8470 6629 c-77 -15 -184 -74 -234 -130 -199 -221 -135 -609 120
-726 159 -72 356 -48 477 59 l38 33 -40 45 -39 45 -29 -17 c-85 -51 -111 -61
-174 -66 -177 -12 -288 96 -297 289 -5 111 15 181 71 245 62 71 105 89 212 89
83 0 94 -2 148 -33 33 -19 66 -30 75 -27 9 3 30 24 45 46 26 38 27 42 12 59
-26 28 -125 77 -183 89 -61 13 -137 13 -202 0z"/>
<path d="M3450 6185 l0 -445 85 0 85 0 0 195 0 195 205 0 205 0 0 -195 0 -195
85 0 85 0 0 445 0 445 -85 0 -85 0 0 -190 0 -190 -205 0 -205 0 0 190 0 190
-85 0 -85 0 0 -445z"/>
<path d="M6501 6538 c-5 -13 -14 -56 -21 -95 -13 -73 -13 -73 -49 -78 -51 -8
-66 -19 -67 -46 -1 -44 14 -59 56 -59 l39 0 3 -214 c3 -234 5 -240 70 -289 49
-36 173 -32 236 9 21 14 21 16 7 43 -24 47 -44 62 -65 51 -32 -17 -78 -12 -90
9 -6 12 -10 96 -10 205 l0 186 83 0 84 0 0 55 0 55 -84 0 -83 0 0 95 0 95 -50
0 c-43 0 -52 -3 -59 -22z"/>
<path d="M1352 6477 c-12 -13 -22 -33 -22 -46 0 -28 42 -71 70 -71 29 0 70 44
70 75 0 59 -77 86 -118 42z"/>
<path d="M4665 6371 c-87 -23 -159 -84 -197 -166 -19 -41 -23 -67 -23 -145 0
-81 4 -103 26 -150 36 -77 71 -115 137 -147 49 -24 69 -28 142 -28 99 0 168
20 223 66 l37 30 -28 35 c-32 41 -45 42 -110 9 -67 -34 -154 -35 -203 -2 -37
24 -67 76 -76 131 l-6 36 209 2 209 3 3 55 c9 157 -88 266 -246 275 -37 2 -80
1 -97 -4z m153 -121 c18 -11 40 -36 48 -55 27 -66 29 -65 -130 -65 l-145 0 9
31 c5 17 17 43 25 56 35 52 134 69 193 33z"/>
<path d="M5407 6370 c-39 -10 -118 -48 -152 -73 -19 -14 -19 -15 8 -51 33 -43
51 -44 117 -11 53 27 126 33 162 14 25 -13 48 -67 48 -112 l0 -34 -76 -7
c-149 -14 -249 -60 -284 -132 -25 -50 -25 -87 0 -141 45 -101 190 -123 315
-48 32 19 59 35 61 35 2 0 4 -9 4 -19 0 -32 28 -51 76 -51 l44 0 0 229 c0 144
-4 241 -11 262 -18 52 -56 97 -102 121 -48 24 -150 33 -210 18z m183 -413 c0
-45 -4 -57 -27 -79 -53 -50 -141 -64 -184 -29 -28 22 -32 83 -7 107 24 24 117
53 171 54 l47 0 0 -53z"/>
<path d="M9247 6370 c-39 -10 -118 -48 -152 -73 -19 -14 -19 -15 8 -51 33 -43
51 -44 117 -11 53 27 126 33 162 14 25 -13 48 -67 48 -112 l0 -34 -76 -7
c-149 -14 -249 -60 -284 -132 -25 -50 -25 -87 0 -141 45 -101 190 -123 315
-48 32 19 59 35 61 35 2 0 4 -9 4 -19 0 -32 28 -51 76 -51 l44 0 0 229 c0 144
-4 241 -11 262 -18 52 -56 97 -102 121 -48 24 -150 33 -210 18z m183 -413 c0
-45 -4 -57 -27 -79 -53 -50 -141 -64 -184 -29 -28 22 -32 83 -7 107 24 24 117
53 171 54 l47 0 0 -53z"/>
<path d="M10084 6361 c-22 -10 -56 -37 -76 -61 l-35 -43 -7 51 c-7 57 -15 62
-87 62 l-49 0 0 -315 0 -315 75 0 75 0 0 193 c0 174 2 195 20 225 33 53 75 74
143 69 66 -6 71 -2 81 81 6 50 6 53 -19 62 -38 15 -75 12 -121 -9z"/>
<path d="M10615 6371 c-87 -23 -159 -84 -197 -166 -19 -41 -23 -67 -23 -145 0
-81 4 -103 26 -150 36 -77 71 -115 137 -147 49 -24 69 -28 142 -28 99 0 168
20 223 66 l37 30 -28 35 c-32 41 -45 42 -110 9 -67 -34 -154 -35 -203 -2 -37
24 -67 76 -76 131 l-6 36 209 2 209 3 3 55 c9 157 -88 266 -246 275 -37 2 -80
1 -97 -4z m153 -121 c18 -11 40 -36 48 -55 27 -66 29 -65 -130 -65 l-145 0 9
31 c5 17 17 43 25 56 35 52 134 69 193 33z"/>
<path d="M1436 6058 c-34 -48 -7 -108 48 -108 41 0 64 17 72 55 12 64 -84 105
-120 53z"/>
<path d="M2861 5794 c-12 -15 -21 -35 -21 -46 0 -25 44 -68 70 -68 29 0 70 44
70 74 0 60 -82 87 -119 40z"/>
<path d="M1707 5732 c-10 -10 -17 -33 -17 -50 0 -61 81 -92 118 -45 18 25 15
77 -6 96 -25 22 -75 21 -95 -1z"/>
<path d="M2490 5600 c-44 -44 -11 -114 52 -112 60 2 88 67 48 110 -26 28 -73
29 -100 2z"/>
<path d="M2075 5575 c-14 -13 -25 -33 -25 -45 0 -29 44 -70 75 -70 33 0 65 33
65 68 0 33 -8 45 -37 61 -33 17 -51 14 -78 -14z"/>
</g>
</svg>
